<?xml version="1.0" encoding="UTF-8" standalone="no"?>
<!DOCTYPE svg PUBLIC "-//W3C//DTD SVG 1.1//EN" "http://www.w3.org/Graphics/SVG/1.1/DTD/svg11.dtd">
<!-- Generated by graphviz version 2.40.1 (20161225.0304)
 -->
<!-- Title: workflow Pages: 1 -->
<svg width="1041pt" height="692pt" viewBox="0.00 0.00 1040.89 692.00" xmlns="http://www.w3.org/2000/svg" xmlns:xlink="http://www.w3.org/1999/xlink">
<g id="graph0" class="graph" transform="scale(1 1) rotate(0) translate(4 688)">
<title>workflow</title>
<polygon fill="#ffffff" stroke="transparent" points="-4,4 -4,-688 1036.8886,-688 1036.8886,4 -4,4"/>
<!-- censo -->
<g id="node1" class="node">
<title>censo</title>
<polygon fill="#d3d3d3" stroke="#d3d3d3" points="232.262,-684 124.7467,-684 124.7467,-648 232.262,-648 232.262,-684"/>
<text text-anchor="middle" x="178.5043" y="-661.8" font-family="Times,serif" font-size="14.00" fill="#000000">Datos del Censo</text>
</g>
<!-- nb1 -->
<g id="node9" class="node">
<title>nb1</title>
<ellipse fill="none" stroke="#0000ff" stroke-width="2" cx="178.5043" cy="-594" rx="178.5087" ry="18"/>
<text text-anchor="middle" x="178.5043" y="-589.8" font-family="Times,serif" font-size="14.00" fill="#000000">1. Generador de Población Sintética.ipynb</text>
</g>
<!-- censo&#45;&gt;nb1 -->
<g id="edge1" class="edge">
<title>censo-&gt;nb1</title>
<path fill="none" stroke="#000000" d="M178.5043,-647.8314C178.5043,-640.131 178.5043,-630.9743 178.5043,-622.4166"/>
<polygon fill="#000000" stroke="#000000" points="182.0044,-622.4132 178.5043,-612.4133 175.0044,-622.4133 182.0044,-622.4132"/>
</g>
<!-- eph -->
<g id="node2" class="node">
<title>eph</title>
<polygon fill="#d3d3d3" stroke="#d3d3d3" points="539.1266,-540 285.8821,-540 285.8821,-504 539.1266,-504 539.1266,-540"/>
<text text-anchor="middle" x="412.5043" y="-517.8" font-family="Times,serif" font-size="14.00" fill="#000000">Encuestas Permanentes de Hogares (EPH)</text>
</g>
<!-- nb2 -->
<g id="node10" class="node">
<title>nb2</title>
<ellipse fill="none" stroke="#0000ff" stroke-width="2" cx="616.5043" cy="-450" rx="160.8845" ry="18"/>
<text text-anchor="middle" x="616.5043" y="-445.8" font-family="Times,serif" font-size="14.00" fill="#000000">2. Preprocesamiento de Ingresos.ipynb</text>
</g>
<!-- eph&#45;&gt;nb2 -->
<g id="edge3" class="edge">
<title>eph-&gt;nb2</title>
<path fill="none" stroke="#000000" d="M463.7188,-503.9243C492.4736,-493.7756 528.4577,-481.0753 558.2802,-470.5497"/>
<polygon fill="#000000" stroke="#000000" points="559.4644,-473.8434 567.7294,-467.2147 557.1346,-467.2425 559.4644,-473.8434"/>
</g>
<!-- aux -->
<g id="node3" class="node">
<title>aux</title>
<polygon fill="#d3d3d3" stroke="#d3d3d3" points="455.9745,-396 345.0341,-396 345.0341,-360 455.9745,-360 455.9745,-396"/>
<text text-anchor="middle" x="400.5043" y="-373.8" font-family="Times,serif" font-size="14.00" fill="#000000">Datos Auxiliares</text>
</g>
<!-- nb3 -->
<g id="node11" class="node">
<title>nb3</title>
<ellipse fill="none" stroke="#0000ff" stroke-width="2" cx="399.5043" cy="-306" rx="122.16" ry="18"/>
<text text-anchor="middle" x="399.5043" y="-301.8" font-family="Times,serif" font-size="14.00" fill="#000000">3. Cálculo de Pobreza.ipynb</text>
</g>
<!-- aux&#45;&gt;nb3 -->
<g id="edge10" class="edge">
<title>aux-&gt;nb3</title>
<path fill="none" stroke="#000000" d="M400.252,-359.8314C400.1451,-352.131 400.0179,-342.9743 399.899,-334.4166"/>
<polygon fill="#000000" stroke="#000000" points="403.3987,-334.3637 399.7601,-324.4133 396.3994,-334.4609 403.3987,-334.3637"/>
</g>
<!-- ipc -->
<g id="node4" class="node">
<title>ipc</title>
<polygon fill="#d3d3d3" stroke="#d3d3d3" points="326.8362,-396 90.1725,-396 90.1725,-360 326.8362,-360 326.8362,-396"/>
<text text-anchor="middle" x="208.5043" y="-373.8" font-family="Times,serif" font-size="14.00" fill="#000000">Índice de Precios al Consumidor (IPC)</text>
</g>
<!-- ipc&#45;&gt;nb3 -->
<g id="edge11" class="edge">
<title>ipc-&gt;nb3</title>
<path fill="none" stroke="#000000" d="M256.7017,-359.8314C283.6895,-349.6579 317.42,-336.9428 345.3214,-326.425"/>
<polygon fill="#000000" stroke="#000000" points="346.8041,-329.6066 354.9267,-322.8041 344.3349,-323.0565 346.8041,-329.6066"/>
</g>
<!-- nb4 -->
<g id="node12" class="node">
<title>nb4</title>
<ellipse fill="none" stroke="#0000ff" stroke-width="2" cx="269.5043" cy="-162" rx="145.2407" ry="18"/>
<text text-anchor="middle" x="269.5043" y="-157.8" font-family="Times,serif" font-size="14.00" fill="#000000">4. Estadísticas Descriptivas.ipynb</text>
</g>
<!-- ipc&#45;&gt;nb4 -->
<g id="edge14" class="edge">
<title>ipc-&gt;nb4</title>
<path fill="none" stroke="#000000" d="M208.1444,-359.779C208.1467,-329.0088 210.8058,-265.2857 230.5043,-216 234.4315,-206.1743 240.5336,-196.474 246.7542,-188.0645"/>
<polygon fill="#000000" stroke="#000000" points="249.5523,-190.1679 252.9382,-180.1286 244.0308,-185.8653 249.5523,-190.1679"/>
</g>
<!-- geo -->
<g id="node5" class="node">
<title>geo</title>
<polygon fill="#d3d3d3" stroke="#d3d3d3" points="746.0276,-252 576.9811,-252 576.9811,-216 746.0276,-216 746.0276,-252"/>
<text text-anchor="middle" x="661.5043" y="-229.8" font-family="Times,serif" font-size="14.00" fill="#000000">Geometrías Geoespaciales</text>
</g>
<!-- nb5 -->
<g id="node13" class="node">
<title>nb5</title>
<ellipse fill="none" stroke="#0000ff" stroke-width="2" cx="630.5043" cy="-162" rx="168.9285" ry="18"/>
<text text-anchor="middle" x="630.5043" y="-157.8" font-family="Times,serif" font-size="14.00" fill="#000000">5. Manejo de Datos Geoespaciales.ipynb</text>
</g>
<!-- geo&#45;&gt;nb5 -->
<g id="edge17" class="edge">
<title>geo-&gt;nb5</title>
<path fill="none" stroke="#000000" d="M653.6817,-215.8314C650.2934,-207.9617 646.2503,-198.5712 642.4967,-189.8533"/>
<polygon fill="#000000" stroke="#000000" points="645.6016,-188.214 638.4323,-180.4133 639.1722,-190.9822 645.6016,-188.214"/>
</g>
<!-- empleo_data -->
<g id="node6" class="node">
<title>empleo_data</title>
<polygon fill="#d3d3d3" stroke="#d3d3d3" points="675.7606,-540 557.2481,-540 557.2481,-504 675.7606,-504 675.7606,-540"/>
<text text-anchor="middle" x="616.5043" y="-517.8" font-family="Times,serif" font-size="14.00" fill="#000000">Employment Data</text>
</g>
<!-- empleo_data&#45;&gt;nb2 -->
<g id="edge5" class="edge">
<title>empleo_data-&gt;nb2</title>
<path fill="none" stroke="#000000" d="M616.5043,-503.8314C616.5043,-496.131 616.5043,-486.9743 616.5043,-478.4166"/>
<polygon fill="#000000" stroke="#000000" points="620.0044,-478.4132 616.5043,-468.4133 613.0044,-478.4133 620.0044,-478.4132"/>
</g>
<!-- models -->
<g id="node7" class="node">
<title>models</title>
<polygon fill="#d3d3d3" stroke="#d3d3d3" points="857.5115,-540 693.4972,-540 693.4972,-504 857.5115,-504 857.5115,-540"/>
<text text-anchor="middle" x="775.5043" y="-517.8" font-family="Times,serif" font-size="14.00" fill="#000000">Machine Learning Models</text>
</g>
<!-- models&#45;&gt;nb2 -->
<g id="edge6" class="edge">
<title>models-&gt;nb2</title>
<path fill="none" stroke="#000000" d="M735.3819,-503.8314C713.7932,-494.0553 687.0214,-481.9323 664.3529,-471.6673"/>
<polygon fill="#000000" stroke="#000000" points="665.7946,-468.478 655.2412,-467.5412 662.907,-474.8547 665.7946,-468.478"/>
</g>
<!-- censo_adjust -->
<g id="node8" class="node">
<title>censo_adjust</title>
<polygon fill="#d3d3d3" stroke="#d3d3d3" points="1032.7731,-540 876.2356,-540 876.2356,-504 1032.7731,-504 1032.7731,-540"/>
<text text-anchor="middle" x="954.5043" y="-517.8" font-family="Times,serif" font-size="14.00" fill="#000000">Census 2010 Adjustment</text>
</g>
<!-- censo_adjust&#45;&gt;nb2 -->
<g id="edge7" class="edge">
<title>censo_adjust-&gt;nb2</title>
<path fill="none" stroke="#000000" d="M876.1108,-505.3008C823.7876,-494.155 755.0132,-479.5049 701.3974,-468.0837"/>
<polygon fill="#000000" stroke="#000000" points="702.0797,-464.6506 691.57,-465.9903 700.6213,-471.497 702.0797,-464.6506"/>
</g>
<!-- poblacion_sintetica -->
<g id="node15" class="node">
<title>poblacion_sintetica</title>
<path fill="none" stroke="#add8e6" d="M255.8094,-540C255.8094,-540 101.1993,-540 101.1993,-540 95.1993,-540 89.1993,-534 89.1993,-528 89.1993,-528 89.1993,-516 89.1993,-516 89.1993,-510 95.1993,-504 101.1993,-504 101.1993,-504 255.8094,-504 255.8094,-504 261.8094,-504 267.8094,-510 267.8094,-516 267.8094,-516 267.8094,-528 267.8094,-528 267.8094,-534 261.8094,-540 255.8094,-540"/>
<text text-anchor="middle" x="178.5043" y="-517.8" font-family="Times,serif" font-size="14.00" fill="#000000">Población sintética por año</text>
</g>
<!-- nb1&#45;&gt;poblacion_sintetica -->
<g id="edge2" class="edge">
<title>nb1-&gt;poblacion_sintetica</title>
<path fill="none" stroke="#000000" d="M178.5043,-575.8314C178.5043,-568.131 178.5043,-558.9743 178.5043,-550.4166"/>
<polygon fill="#000000" stroke="#000000" points="182.0044,-550.4132 178.5043,-540.4133 175.0044,-550.4133 182.0044,-550.4132"/>
</g>
<!-- ingresos_ajustados -->
<g id="node16" class="node">
<title>ingresos_ajustados</title>
<path fill="none" stroke="#add8e6" d="M747.4235,-396C747.4235,-396 485.5852,-396 485.5852,-396 479.5852,-396 473.5852,-390 473.5852,-384 473.5852,-384 473.5852,-372 473.5852,-372 473.5852,-366 479.5852,-360 485.5852,-360 485.5852,-360 747.4235,-360 747.4235,-360 753.4235,-360 759.4235,-366 759.4235,-372 759.4235,-372 759.4235,-384 759.4235,-384 759.4235,-390 753.4235,-396 747.4235,-396"/>
<text text-anchor="middle" x="616.5043" y="-373.8" font-family="Times,serif" font-size="14.00" fill="#000000">Datos de ingresos ajustados por trimestre y año</text>
</g>
<!-- nb2&#45;&gt;ingresos_ajustados -->
<g id="edge8" class="edge">
<title>nb2-&gt;ingresos_ajustados</title>
<path fill="none" stroke="#000000" d="M616.5043,-431.8314C616.5043,-424.131 616.5043,-414.9743 616.5043,-406.4166"/>
<polygon fill="#000000" stroke="#000000" points="620.0044,-406.4132 616.5043,-396.4133 613.0044,-406.4133 620.0044,-406.4132"/>
</g>
<!-- metricas_pobreza -->
<g id="node17" class="node">
<title>metricas_pobreza</title>
<path fill="none" stroke="#add8e6" d="M547.3804,-252C547.3804,-252 251.6283,-252 251.6283,-252 245.6283,-252 239.6283,-246 239.6283,-240 239.6283,-240 239.6283,-228 239.6283,-228 239.6283,-222 245.6283,-216 251.6283,-216 251.6283,-216 547.3804,-216 547.3804,-216 553.3804,-216 559.3804,-222 559.3804,-228 559.3804,-228 559.3804,-240 559.3804,-240 559.3804,-246 553.3804,-252 547.3804,-252"/>
<text text-anchor="middle" x="399.5043" y="-229.8" font-family="Times,serif" font-size="14.00" fill="#000000">Métricas de pobreza para hogares por año y trimestre</text>
</g>
<!-- nb3&#45;&gt;metricas_pobreza -->
<g id="edge12" class="edge">
<title>nb3-&gt;metricas_pobreza</title>
<path fill="none" stroke="#000000" d="M399.5043,-287.8314C399.5043,-280.131 399.5043,-270.9743 399.5043,-262.4166"/>
<polygon fill="#000000" stroke="#000000" points="403.0044,-262.4132 399.5043,-252.4133 396.0044,-262.4133 403.0044,-262.4132"/>
</g>
<!-- results -->
<g id="node19" class="node">
<title>results</title>
<path fill="none" stroke="#add8e6" d="M370.8055,-108C370.8055,-108 168.2031,-108 168.2031,-108 162.2031,-108 156.2031,-102 156.2031,-96 156.2031,-96 156.2031,-84 156.2031,-84 156.2031,-78 162.2031,-72 168.2031,-72 168.2031,-72 370.8055,-72 370.8055,-72 376.8055,-72 382.8055,-78 382.8055,-84 382.8055,-84 382.8055,-96 382.8055,-96 382.8055,-102 376.8055,-108 370.8055,-108"/>
<text text-anchor="middle" x="269.5043" y="-85.8" font-family="Times,serif" font-size="14.00" fill="#000000">Datasets procesados en 'results_path'</text>
</g>
<!-- nb4&#45;&gt;results -->
<g id="edge15" class="edge">
<title>nb4-&gt;results</title>
<path fill="none" stroke="#000000" d="M269.5043,-143.8314C269.5043,-136.131 269.5043,-126.9743 269.5043,-118.4166"/>
<polygon fill="#000000" stroke="#000000" points="273.0044,-118.4132 269.5043,-108.4133 266.0044,-118.4133 273.0044,-118.4132"/>
</g>
<!-- geojson -->
<g id="node18" class="node">
<title>geojson</title>
<path fill="none" stroke="#add8e6" d="M727.8298,-108C727.8298,-108 533.1789,-108 533.1789,-108 527.1789,-108 521.1789,-102 521.1789,-96 521.1789,-96 521.1789,-84 521.1789,-84 521.1789,-78 527.1789,-72 533.1789,-72 533.1789,-72 727.8298,-72 727.8298,-72 733.8298,-72 739.8298,-78 739.8298,-84 739.8298,-84 739.8298,-96 739.8298,-96 739.8298,-102 733.8298,-108 727.8298,-108"/>
<text text-anchor="middle" x="630.5043" y="-85.8" font-family="Times,serif" font-size="14.00" fill="#000000">GeoJSONs con métricas de pobreza</text>
</g>
<!-- nb5&#45;&gt;geojson -->
<g id="edge18" class="edge">
<title>nb5-&gt;geojson</title>
<path fill="none" stroke="#000000" d="M630.5043,-143.8314C630.5043,-136.131 630.5043,-126.9743 630.5043,-118.4166"/>
<polygon fill="#000000" stroke="#000000" points="634.0044,-118.4132 630.5043,-108.4133 627.0044,-118.4133 634.0044,-118.4132"/>
</g>
<!-- nb6 -->
<g id="node14" class="node">
<title>nb6</title>
<ellipse fill="none" stroke="#0000ff" stroke-width="2" cx="630.5043" cy="-18" rx="143.496" ry="18"/>
<text text-anchor="middle" x="630.5043" y="-13.8" font-family="Times,serif" font-size="14.00" fill="#000000">6. Integración con Mapbox.ipynb</text>
</g>
<!-- poblacion_sintetica&#45;&gt;nb2 -->
<g id="edge4" class="edge">
<title>poblacion_sintetica-&gt;nb2</title>
<path fill="none" stroke="#000000" d="M267.6861,-505.5253C270.66,-505.0061 273.6058,-504.4963 276.5043,-504 354.9517,-490.568 443.7837,-476.4987 510.9705,-466.0894"/>
<polygon fill="#000000" stroke="#000000" points="511.7947,-469.5036 521.1421,-464.5159 510.7245,-462.5859 511.7947,-469.5036"/>
</g>
<!-- ingresos_ajustados&#45;&gt;nb3 -->
<g id="edge9" class="edge">
<title>ingresos_ajustados-&gt;nb3</title>
<path fill="none" stroke="#000000" d="M562.0262,-359.9243C530.624,-349.5051 491.1163,-336.3966 458.917,-325.713"/>
<polygon fill="#000000" stroke="#000000" points="459.7693,-322.3082 449.1758,-322.4809 457.5648,-328.952 459.7693,-322.3082"/>
</g>
<!-- metricas_pobreza&#45;&gt;nb4 -->
<g id="edge13" class="edge">
<title>metricas_pobreza-&gt;nb4</title>
<path fill="none" stroke="#000000" d="M366.6999,-215.8314C349.6619,-206.3949 328.6755,-194.7717 310.5693,-184.7436"/>
<polygon fill="#000000" stroke="#000000" points="311.8432,-181.4483 301.3995,-179.665 308.4517,-187.5719 311.8432,-181.4483"/>
</g>
<!-- metricas_pobreza&#45;&gt;nb5 -->
<g id="edge16" class="edge">
<title>metricas_pobreza-&gt;nb5</title>
<path fill="none" stroke="#000000" d="M457.4972,-215.9243C490.4613,-205.6498 531.8158,-192.7601 565.8265,-182.1593"/>
<polygon fill="#000000" stroke="#000000" points="567.163,-185.4089 575.6685,-179.0917 565.08,-178.726 567.163,-185.4089"/>
</g>
<!-- geojson&#45;&gt;nb6 -->
<g id="edge19" class="edge">
<title>geojson-&gt;nb6</title>
<path fill="none" stroke="#000000" d="M630.5043,-71.8314C630.5043,-64.131 630.5043,-54.9743 630.5043,-46.4166"/>
<polygon fill="#000000" stroke="#000000" points="634.0044,-46.4132 630.5043,-36.4133 627.0044,-46.4133 634.0044,-46.4132"/>
</g>
</g>
</svg>